HIERARCHY
ROOT Hips
{
	OFFSET 0.000000 0.000000 0.000000
	CHANNELS 6 Xposition Yposition Zposition Zrotation Yrotation Xrotation 
	JOINT LHipJoint
	{
		OFFSET 0.000000 0.000000 0.000000
		CHANNELS 3 Zrotation Yrotation Xrotation
		JOINT LeftUpLeg
		{
			OFFSET 1.363060 -1.794630 0.839290
			CHANNELS 3 Zrotation Yrotation Xrotation
			JOINT LeftLeg
			{
				OFFSET 2.448110 -6.726130 0.000000
				CHANNELS 3 Zrotation Yrotation Xrotation
				JOINT LeftFoot
				{
					OFFSET 2.562200 -7.039590 0.000000
					CHANNELS 3 Zrotation Yrotation Xrotation
					JOINT LeftToeBase
					{
						OFFSET 0.157640 -0.433110 2.322550
						CHANNELS 3 Zrotation Yrotation Xrotation
						End Site
						{
							OFFSET 0.000000 0.000000 0.000000
						}
					}
				}
			}
		}
	}
	JOINT RHipJoint
	{
		OFFSET 0.000000 0.000000 0.000000
		CHANNELS 3 Zrotation Yrotation Xrotation
		JOINT RightUpLeg
		{
			OFFSET -1.305520 -1.794630 0.839290
			CHANNELS 3 Zrotation Yrotation Xrotation
			JOINT RightLeg
			{
				OFFSET -2.542530 -6.985550 0.000000
				CHANNELS 3 Zrotation Yrotation Xrotation
				JOINT RightFoot
				{
					OFFSET -2.568260 -7.056230 0.000000
					CHANNELS 3 Zrotation Yrotation Xrotation
					JOINT RightToeBase
					{
						OFFSET -0.164730 -0.452590 2.363150
						CHANNELS 3 Zrotation Yrotation Xrotation
						End Site
						{
							OFFSET 0.000000 0.000000 0.000000
						}
					}
				}
			}
		}
	}
}
MOTION
Frames: 30
Frame Time: 0.008333
4.653949 16.864592 -7.707706 -177.677758 37.252232 -172.676394 -8.227217 1.841627 0.501501 -20.613357 13.605515 -34.103071 -2.621777 0.537457 28.523617 2.360614 10.626938 -14.428559 178.648000 -0.000000 -1.363500 12.705759 -3.972321 -1.484407 -6.406507 -21.635854 -1.930672 -0.074799 -2.515318 35.483136 -1.007425 1.497771 23.604832 1.230700 0.000000 -91.689300
4.696648 16.811174 -7.824068 -178.129202 36.802317 -173.172976 -8.192255 1.896584 0.317708 -21.068961 13.731348 -34.061463 -2.612613 0.690837 30.198534 2.327071 10.268197 -15.210573 178.489700 -0.000000 -1.341300 12.831376 -3.768204 -1.605249 -7.190856 -21.770618 -2.921913 -0.221599 -2.667767 38.594235 -1.168182 0.795854 24.021902 0.963300 0.000000 -89.035401
4.735009 16.755336 -7.936968 -178.575363 36.327388 -173.657773 -8.165531 1.932326 0.150451 -21.465352 13.666064 -33.916729 -2.589832 0.831582 31.812495 2.325551 10.050232 -16.099394 178.304600 0.000000 -1.264300 12.938440 -3.544343 -1.752497 -7.922668 -21.858205 -3.963538 -0.359858 -2.837695 41.796054 -1.337356 -0.273323 24.061302 0.491200 0.000000 -85.700901
4.769735 16.698102 -8.046446 -179.019475 35.830211 -174.133047 -8.143818 1.951552 -0.001894 -21.820545 13.430801 -33.662771 -2.557559 0.958200 33.334010 2.354539 9.972573 -17.071828 178.091500 0.000000 -1.141100 13.030506 -3.305871 -1.921603 -8.600733 -21.894089 -5.052637 -0.494503 -3.028198 45.053653 -1.514966 -1.701926 23.694068 -0.167600 -0.000000 -81.865700
4.801640 16.640689 -8.152644 -179.465207 35.313251 -174.602086 -8.123535 1.957723 -0.142494 -22.155197 13.058947 -33.299968 -2.520152 1.070182 34.736236 2.410073 10.021544 -18.098052 177.851400 -0.000001 -0.985400 13.111874 -3.057985 -2.106030 -9.226358 -21.873869 -6.184723 -0.630141 -3.239964 48.323831 -1.701386 -3.441857 22.920737 -0.963100 -0.000000 -77.709901
4.831591 16.584500 -8.255845 -179.915308 34.779988 -175.066569 -8.101388 1.954717 -0.275358 -22.487498 12.592259 -32.833307 -2.481716 1.167696 35.996209 2.486225 10.173399 -19.142288 177.588600 0.000000 -0.813400 13.186697 -2.805856 -2.297712 -9.799478 -21.793000 -7.353767 -0.770107 -3.470942 51.554945 -1.896553 -5.411922 21.774329 -1.822201 0.000000 -73.439400
4.860444 16.530975 -8.356443 179.628741 34.234353 -175.527403 -8.074732 1.946813 -0.404588 -22.831821 12.075229 -32.270413 -2.445946 1.251429 37.095120 2.575628 10.396871 -20.166277 177.311600 -0.000000 -0.640200 13.258435 -2.554000 -2.488297 -10.321301 -21.648436 -8.553776 -0.916104 -3.716995 54.694836 -2.098138 -7.504366 20.307705 -2.660500 -0.000001 -69.190300
4.889020 16.481483 -8.454877 179.166624 33.675813 -175.984652 -8.041628 1.937159 -0.533299 -23.197738 11.550066 -31.618880 -2.415466 1.321533 38.018019 2.669989 10.655642 -21.132063 177.032600 -0.000000 -0.476300 13.329643 -2.308122 -2.669319 -10.793065 -21.441904 -9.778182 -1.067432 -3.973247 57.692175 -2.300841 -9.597923 18.589515 -3.397300 -0.000001 -65.065501
4.918023 16.437341 -8.551749 178.701144 33.106092 -176.433968 -8.001600 1.929371 -0.663760 -23.586351 11.053936 -30.888248 -2.392775 1.378767 38.753596 2.760911 10.912326 -22.005959 176.766500 0.000000 -0.326100 13.400964 -2.071901 -2.834024 -11.213037 -21.176537 -11.021320 -1.222260 -4.232961 60.499119 -2.496378 -11.572030 16.698555 -3.969000 -0.000000 -61.163400
4.947948 16.399661 -8.647790 178.239485 32.524765 -176.867306 -7.955569 1.926066 -0.796459 -23.991164 10.615278 -30.088724 -2.379623 1.423635 39.294708 2.840494 11.130928 -22.761070 176.529500 0.000000 -0.187100 13.471218 -1.848792 -2.977198 -11.575290 -20.859337 -12.278374 -1.377029 -4.488881 63.073192 -2.673911 -13.316041 14.713641 -4.336300 0.000000 -57.556899
4.979041 16.369365 -8.743763 177.791247 31.929564 -177.274483 -7.905687 1.928893 -0.930084 -24.399275 10.250718 -29.229246 -2.377158 1.456419 39.637792 2.902139 11.280448 -23.379599 176.336200 -0.000000 -0.051200 13.537696 -1.641199 -3.095802 -11.872203 -20.500852 -13.544870 -1.526833 -4.733681 65.379337 -2.821376 -14.736652 12.707975 -4.485900 -0.000000 -54.305300
5.011466 16.347052 -8.840485 177.367889 31.316174 -177.643716 -7.855069 1.938721 -1.061653 -24.793608 9.965236 -28.318071 -2.386026 1.477361 39.783515 2.941118 11.337602 -23.853709 -3.802201 -0.000001 -0.092900 13.596487 -1.450472 -3.189130 -12.094017 -20.115284 -14.815176 -1.665691 -4.960260 67.389465 -2.927132 -15.763532 10.743725 -4.429199 0.000000 -51.458900
5.045109 16.333030 -8.938716 176.980666 30.678766 -177.963307 -7.807489 1.955118 -1.187319 -25.155218 9.751502 -27.360998 -2.406325 1.486510 39.735879 2.954992 11.288812 -24.185763 -3.879900 -0.000000 -0.258000 13.642937 -1.276472 -3.258983 -12.231645 -19.719289 -16.083623 -1.786940 -5.162536 69.082926 -2.981830 -16.353931 8.871595 -4.197600 0.000000 -49.061100
5.079688 16.327458 -9.039219 176.644335 30.011412 -178.221174 -7.767302 1.976919 -1.301417 -25.462339 9.592418 -26.363014 -2.437514 1.483718 39.500706 2.943424 11.130427 -24.384793 -3.896300 0.000000 -0.456600 13.671980 -1.118758 -3.307865 -12.272141 -19.328567 -17.342826 -1.883764 -5.334878 70.443439 -2.979956 -16.496465 7.129984 -3.835500 0.000001 -47.129101
5.114830 16.330147 -9.142545 176.368107 29.307444 -178.408718 -7.738384 2.002108 -1.399126 -25.698803 9.462989 -25.325828 -2.478668 1.468821 39.085858 2.908407 10.869587 -24.466482 -3.856400 0.000000 -0.699499 13.679026 -0.975295 -3.340445 -12.207984 -18.959215 -18.584666 -1.950025 -5.473599 71.462326 -2.920594 -16.209484 5.544933 -3.392300 0.000000 -45.661300
5.150092 16.340788 -9.249178 176.160406 28.561394 -178.520417 -7.724483 2.028228 -1.475377 -25.850386 9.334906 -24.250180 -2.528265 1.441508 38.499673 2.853411 10.521640 -24.448203 -3.768900 -0.000000 -0.994800 13.659971 -0.843756 -3.361204 -12.032364 -18.624098 -19.800399 -1.980849 -5.576062 72.135350 -2.808274 -15.543304 4.131355 -2.915900 0.000000 -44.624700
5.185053 16.358957 -9.359411 176.026398 27.770136 -178.554161 -7.728750 2.052863 -1.525785 -25.907756 9.180099 -23.135791 -2.584341 1.401494 37.750759 2.782766 10.107440 -24.346550 -3.644500 0.000001 -1.347700 13.611617 -0.721649 -3.374081 -11.740596 -18.330830 -20.980790 -1.973268 -5.640793 72.463323 -2.652782 -14.576551 2.893381 -2.447100 0.000000 -43.961701
5.219323 16.384140 -9.473280 175.967121 26.932402 -178.513012 -7.753399 2.073836 -1.547209 -25.867045 8.974729 -21.981925 -2.644585 1.348527 36.846779 2.701119 9.651186 -24.175059 -3.493999 0.000000 -1.759400 13.531976 -0.606309 -3.382341 -11.331649 -18.082711 -22.116737 -1.926534 -5.667468 72.452086 -2.468087 -13.408934 1.824392 -2.015800 0.000000 -43.600700
5.252633 16.415738 -9.590718 175.979748 26.051138 -178.403354 -7.799743 2.089546 -1.538337 -25.728910 8.701855 -20.788640 -2.706458 1.282692 35.795684 2.612655 9.176810 -23.942387 -3.327000 -0.000000 -2.227000 13.420295 -0.494966 -3.388308 -10.808290 -17.876673 -23.198954 -1.842145 -5.656555 72.111074 -2.270674 -12.152235 0.907917 -1.640500 0.000000 -43.474600
5.284855 16.453132 -9.711457 176.059573 25.132094 -178.234146 -7.867894 2.099336 -1.498981 -25.498179 8.353421 -19.557661 -2.767146 1.204350 34.605710 2.520709 8.705919 -23.650987 -3.151000 0.000000 -2.742700 13.277309 -0.385612 -3.392291 -10.175808 -17.703576 -24.219478 -1.723554 -5.609128 71.453032 -2.077506 -10.919832 0.119593 -1.330000 -0.000000 -43.534700
5.315976 16.495847 -9.835143 176.201088 24.182729 -178.017040 -7.957354 2.103109 -1.430542 -25.180180 7.930948 -18.290187 -2.823647 1.114075 33.283840 2.427278 8.255403 -23.296348 -2.970500 0.000000 -3.297400 13.104820 -0.277637 -3.393298 -9.441540 -17.549162 -25.166989 -1.575393 -5.526550 70.489062 -1.904003 -9.815604 -0.568184 -1.085700 0.000000 -43.754300
5.346165 16.543162 -9.961331 176.395885 23.214368 -177.762062 -8.066173 2.101881 -1.336059 -24.785416 7.443514 -16.993983 -2.873247 1.013308 31.842367 2.333534 7.837150 -22.872023 -2.788100 0.000000 -3.878400 12.906047 -0.170101 -3.388882 -8.617356 -17.394678 -26.036034 -1.403479 -5.410849 69.234107 -1.762388 -8.922852 -1.185729 -0.903499 -0.000000 -44.116800
5.375653 16.594546 -10.089522 176.637122 22.237185 -177.478885 -8.192337 2.096937 -1.219717 -24.322473 6.907949 -15.677606 -2.913344 0.903729 30.293860 2.239241 7.455911 -22.367199 -2.604100 -0.000000 -4.477000 12.684647 -0.063592 -3.375583 -7.715372 -17.219176 -26.819089 -1.213595 -5.264075 67.698272 -1.661445 -8.300618 -1.757928 -0.776600 0.000000 -44.600800
5.404793 16.649315 -10.219245 176.917344 21.261100 -177.174775 -8.333074 2.090070 -1.086282 -23.800938 6.344227 -14.353229 -2.941749 0.787609 28.655495 2.143605 7.111356 -21.771573 -2.417200 -0.000000 -5.087800 12.445021 0.041001 -3.349087 -6.750250 -17.001437 -27.511580 -1.011593 -5.088618 65.891175 -1.606413 -7.979473 -2.301183 -0.696799 -0.000000 -45.163700
5.433875 16.706920 -10.350100 177.233417 20.294869 -176.853946 -8.487571 2.082965 -0.941813 -23.224222 5.779392 -13.036393 -2.956831 0.667778 26.949244 2.044416 6.793052 -21.076936 -2.224800 -0.000000 -5.715900 12.190360 0.141536 -3.305192 -5.732963 -16.719956 -28.107263 -0.802846 -4.886359 63.817067 -1.599672 -7.964383 -2.818177 -0.656300 0.000000 -45.732200
5.463231 16.766651 -10.481751 177.582283 19.343830 -176.518572 -8.654833 2.077595 -0.792367 -22.594667 5.241515 -11.747100 -2.957793 0.547679 25.203936 1.939180 6.484651 -20.280311 -2.024300 0.000000 -6.374900 11.924096 0.235805 -3.239607 -4.675535 -16.357173 -28.603191 -0.592485 -4.659360 61.479973 -1.640726 -8.234894 -3.297754 -0.648600 -0.000001 -46.208100
5.493377 16.827746 -10.613887 177.955881 18.408403 -176.168580 -8.830620 2.076451 -0.641360 -21.922809 4.747012 -10.506195 -2.944983 0.430580 23.449108 1.826951 6.173299 -19.384598 -1.815601 0.000000 -7.077700 11.651450 0.322545 -3.147366 -3.597294 -15.902448 -29.002815 -0.385501 -4.410222 58.886431 -1.726097 -8.748001 -3.714399 -0.670000 -0.000000 -46.489900
5.524460 16.889491 -10.746360 178.356225 17.488517 -175.803067 -9.017080 2.081359 -0.495211 -21.200766 4.327903 -9.338495 -2.919616 0.320748 21.724543 1.704073 5.827730 -18.399938 -1.597400 -0.000000 -7.858400 11.373713 0.398133 -3.025816 -2.503813 -15.346111 -29.302431 -0.185892 -4.140054 56.036781 -1.850066 -9.450805 -4.029588 -0.722800 0.000000 -46.498600
5.556720 16.951101 -10.879105 178.780739 16.579873 -175.420812 -9.213758 2.094503 -0.357932 -20.427821 4.005511 -8.268639 -2.884068 0.222088 20.070367 1.568526 5.420546 -17.343329 -1.371500 -0.000000 -8.752300 11.093634 0.459829 -2.872289 -1.406719 -14.686440 -29.503541 0.003021 -3.850314 52.935586 -2.003995 -10.280947 -4.199261 -0.814100 -0.000001 -46.210400
5.590597 17.011720 -11.012072 179.218492 15.674017 -175.022150 -9.415477 2.118109 -0.230203 -19.616651 3.781794 -7.314386 -2.841813 0.137337 18.519190 1.421063 4.936718 -16.236210 -1.144101 0.000000 -9.780700 10.816687 0.506876 -2.684798 -0.328396 -13.932969 -29.613759 0.179170 -3.543021 49.594279 -2.176166 -11.169766 -4.182842 -0.954500 0.000000 -45.670900
